<?xml version="1.0" encoding="utf-8"?>
<!-- Generator: Adobe Illustrator 27.5.0, SVG Export Plug-In . SVG Version: 6.00 Build 0)  -->
<svg version="1.1" id="Layer_1" xmlns="http://www.w3.org/2000/svg" xmlns:xlink="http://www.w3.org/1999/xlink" x="0px" y="0px"
	 viewBox="0 0 450 450" style="enable-background:new 0 0 450 450;" xml:space="preserve">
<g>
	<g>
		<path style="fill:#8DB5B3;" d="M105.653,274.395c0,27.462,26.469,43.78,59.12,43.78c32.65,0,59.119-16.317,59.119-43.78
			c0-27.462-23.541-44.652-56.192-44.652C135.049,229.743,105.653,246.932,105.653,274.395z"/>
		<path style="fill:#3D504A;" d="M166.152,262.953c26.598,0,55.486-5.137,53.476-10.439c-0.554-1.176-1.945-0.951-2.247-0.728
			c-0.204,0.151,0.177,0.459,0.471,0.734c0,3.101-19.603,8.866-51.699,8.866c-32.096,0-52.08-6.338-52.08-9.439
			c-0.123-0.925-1.366-0.927-1.496,0.567C112.577,258.455,139.554,262.953,166.152,262.953z"/>
		<path style="fill:#3D504A;" d="M164.921,305.988c21.997,0,54.707-3.916,54.707-10.558c0-1.371-1.58-1.101-1.974,0
			c-0.293,1.595-20.046,8.706-52.882,8.706c-32.837,0-51.831-6.427-52.593-8.278c-0.551-0.859-1.861-1.693-1.995-0.428
			C110.185,302.071,142.924,305.988,164.921,305.988z"/>
		<path style="fill:#3D504A;" d="M164.773,284.043c22.24,0,61.066-5.275,61.066-11.916c-0.122-1.137-2.178-1.055-1.977,0.585
			c0.02,2.16-26.939,9.623-59.09,9.268c-36.726-0.406-59.047-6.912-59.047-10.015c-0.073-1.184-1.635-1.471-1.723,0
			C104.003,278.606,142.8,284.043,164.773,284.043z"/>
		<path style="opacity:0.3;fill:#8DB5B3;" d="M121.048,244.275c-1.278,3.691-1.971,7.642-1.971,11.837
			c0,27.462,26.468,43.779,59.12,43.779c17.29,0,32.844-4.578,43.655-12.961c-6.781,19.816-29.76,31.245-57.078,31.245
			c-32.651,0-59.119-16.317-59.119-43.78C105.653,262.077,111.579,251.835,121.048,244.275z"/>
		<path style="opacity:0.28;fill:#8DB5B3;" d="M150.712,240.109c-11.355,0-2.14-10.366,16.988-10.366
			c32.651,0,56.192,17.189,56.192,44.652C223.892,292.731,183.362,240.109,150.712,240.109z"/>
	</g>
	<g>
		<path style="fill:#3D504A;" d="M231.322,298.105c0,0,0,10.163,0,13.716c0,3.168,6.189,3.608,7.508,3.79
			c1.318,0.202,3.516,0.073,7.508,3.644c5.402,3.901,19.301,2.014,19.576-3.095c0.11-2.051-1.245-3.827-3.168-5.31
			c-3.003-2.344-7.417-3.956-9.651-4.871c-2.179-0.879-4.889-4.468-6.904-8.424c-1.392-2.692-2.472-5.567-2.857-7.838
			C242.383,284.096,231.322,298.105,231.322,298.105z"/>
		<path style="opacity:0.26;fill:#3D504A;" d="M231.322,298.105c0,0,0,10.163,0,13.716c0,3.168,6.189,3.608,7.508,3.79
			c1.318,0.202,3.516,0.073,7.508,3.644c5.402,3.901,19.301,2.014,19.576-3.095c0.11-2.051-1.245-3.827-3.168-5.31
			c3.461,6.94-12.965,5.951-17.049,4.285c-4.065-1.648-7.16-2.143-9.816-2.966c-2.637-0.824-0.824-7.124,0-7.307
			c0.824-0.201,3.48-1.795,5.457-4.267c1.996-2.472,4.835-3.04,4.835-3.04h0.018c-1.392-2.692-2.472-5.567-2.857-7.838
			C242.383,284.096,231.322,298.105,231.322,298.105z"/>
		<path style="fill:#603B32;" d="M193.822,113.759c0,0,7.095-6.125,3.659-10.862c-2.1-2.895-12.96-9.965-19.895-8.314
			c-6.935,1.651-13.85,5.329-14.456,6.411c-2.404,4.291-5.263,7.645-4.768,10.43c1.406,7.903,6.103,12.284,5.151,14.829
			C162.561,128.799,193.822,113.759,193.822,113.759z"/>
		<path style="fill:#3D504A;" d="M179.663,341.56c1.557,1.795,7.27,1.996,11.042,3.681c3.772,1.685,15.62,3.736,20.253,1.996
			c0.989-0.366,1.85-0.97,2.472-1.703h0.018c1.941-2.179,2.069-5.585-1.484-7.874c0,0-0.018,0-0.037-0.018
			c-0.018,0-0.037-0.018-0.073-0.037c-0.861-0.55-1.959-1.026-3.278-1.41c-3.095-0.897-5.787-2.966-8.021-5.457
			c-1.849-2.088-3.388-4.432-4.542-6.629c-1.373-2.582-2.197-4.926-2.399-6.281c-0.586-3.845-13.203,5.054-13.203,5.054
			s-0.234,9.5-0.751,12.233C179.289,337.095,179.251,338.807,179.663,341.56z"/>
		<path style="opacity:0.26;fill:#3D504A;" d="M179.663,341.56c1.557,1.795,7.27,1.996,11.042,3.681
			c3.772,1.685,15.62,3.736,20.253,1.996c0.989-0.366,1.85-0.97,2.472-1.703c-1.483,0.202-3.607,0.476-5.622,0.604
			c-3.553,0.257-10.163-2.216-15.309-3.937c-5.146-1.721-7.911-5.146-7.673-7.398c0.238-2.234,3.186-5.933,7.013-7.124
			c3.827-1.19,4.175-3.571,4.175-3.571c-1.373-2.582-2.197-4.926-2.399-6.281c-0.586-3.845-13.203,5.054-13.203,5.054
			s-0.119,7.856-0.751,12.233C179.375,337.109,178.902,339.47,179.663,341.56z"/>
		<path style="fill:#94633A;" d="M160.55,132.16c0,0,0.865-0.457,1.62-0.135c0.755,0.322-0.843,1.947-0.843,1.947L160.55,132.16z"/>
		<path style="opacity:0.55;fill:#94633A;" d="M160.55,132.16c0,0,0.865-0.457,1.62-0.135c0.755,0.322-0.843,1.947-0.843,1.947
			L160.55,132.16z"/>
		<path style="fill:#21262C;" d="M167.291,245.367c0.683,0.103,44.423,1.742,46.389,1.888c0.493,1.348,7.709,25.411,12.477,40.633
			c0.451,1.447,0.871,2.798,1.286,4.054c1.35,4.316,2.358,7.372,2.719,8.147c1.949,4.231,16.222-2.889,15.518-6.671
			c-0.704-3.783-8.592-51.043-9.25-53.903c-0.329-1.43-0.71-2.929-1.168-4.496c-0.536-1.659-0.995-3.25-2.153-5.596
			c-1.515-3.049-4.227-5.131-7.271-5.913c0,0-44.953-8.476-53.614-9.833c-8.757-1.352-16.947,4.632-18.299,13.389
			C152.549,235.801,158.534,244.015,167.291,245.367z"/>
		<path style="fill:#373F48;" d="M139.514,224.919c-3.582,7.231-1.578,16.208,5.142,21.166c0.812,0.599,19.712,10.005,22.246,11.31
			c0.119,0.832,1.738,11.249,2.468,15.586c1.463,8.665,9.062,49.803,10.169,52.399c1.532,3.593,16.479-1.254,16.479-3.675
			c0-2.422-1.689-42.363-1.796-50.975c0,0-0.014-10.058,0.012-15.437c0.008-1.579,0.118-3.144,0.324-4.709
			c0.122-0.924,0.16-1.879,0.09-2.822c0.024-1.738-1.134-4.817-1.069-4.531c-0.332-0.794-0.741-1.574-1.211-2.304
			c-0.19-0.306-0.585-0.849-0.644-0.922l-0.248-0.318l-0.52-0.618l-0.7-0.744l-0.483-0.469c-0.911-0.84-3.368-2.839-3.368-2.839
			c-3.919-3.114-13.018-11.175-13.018-11.175c5.678-1.695,10.318-5.688,11.782-7.913c-0.388-4.74-29.6-9.767-42.178-6.616
			c-0.282,3.285-0.506,5.583-0.795,7.573C141.787,219.699,140.776,222.371,139.514,224.919z M194.371,251.203l-0.092,0.548
			l0.081-1.272c0.015-0.198,0.038-0.322,0.058-0.421c0.009,0.043,0.077-0.264,0.003,0.742L194.371,251.203z"/>
		<path style="fill:#94633A;" d="M195.163,177.197c1.219,0.965,2.389,1.933,3.68,2.893c0.177,0.134,0.329,0.246,0.508,0.404
			c1.037,0.758,2.147,1.536,3.53,2.419c2.602,2.258,4.082,2.748,6.457,3.666c2.667,0.949,6.48,2.046,9,2.569
			c2.495,0.501,12.258,1.695,14.853,1.851c0.728,0.052,1.349-0.469,1.827-1.344c1.798-3.009,1.966-10.172-0.332-10.612
			c0,0-16.745-4.756-18.369-5.624c-1.594-0.773-4.157-1.607-4.175-1.896c0,0-9.311-10.839-11.179-12.948
			c-3.763-4.266-7.361-9.773-7.361-9.773c-3.599-4.348-10.329-10.1-11.857-4.643C178.087,157.069,192.824,175.285,195.163,177.197z"
			/>
		<path style="fill:#E0E4E5;" d="M136.867,160.69c0,0,2.454,21.242,3.058,25.307c0.33,2.179,1.3,7.526,2.179,12.049
			c0.238,1.282,0.439,2.564,0.568,3.864c0.421,3.662,0.439,7.361,0.073,11.024c-0.366,3.864-1.813,6.556-1.557,7.343
			c1.575,4.67,13.313,0.806,25.527,1.428c0.037,0.018,0.055,0.018,0.055,0.018c1.172,0.037,2.344,0.128,3.516,0.293
			c1.227,0.183,2.472,0.146,3.662-0.22c5.109-1.593,12.159-4.78,11.225-5.86l10.145-22.707c4.248-6.886-2.307-38.658-2.637-43.327
			c-0.073-0.659-0.22-1.282-0.439-1.831c-1.428-3.864-5.988-5.439-12.947-9.303c-0.604-0.33-1.227-0.678-1.868-1.062
			c-4.193-2.435-9.083-3.479-13.862-2.729c-14.375,2.253-24.392,6.666-25.454,10.42C137.362,148.054,136.629,158.071,136.867,160.69
			z"/>
		<path style="opacity:0.26;fill:#94633A;" d="M188.516,152.543l5.039,24.192c1.037,0.758,7.944,5.295,9.326,6.177
			c2.602,2.258,4.082,2.748,6.457,3.666c2.667,0.949,6.48,2.046,9,2.569c2.495,0.501,12.258,1.695,14.853,1.851
			c0.728,0.052,1.349-0.469,1.827-1.344c-1.386-1.341-3.364-2.477-6.075-2.941c-8.985-1.531-15.455-5.39-19.347-6.603
			c-3.916-1.211-4.143-4.556-6.666-6.698c-2.547-2.141-8.961-17.795-8.961-17.795L188.516,152.543z"/>
		<path style="fill:#373F48;" d="M166.902,257.394c0,0,13.011-6.2,12.841-8.989C179.573,245.615,166.902,257.394,166.902,257.394z"
			/>
		<path style="opacity:0.31;fill:#373F48;" d="M179.821,273.546c0,0-7.051,14.022-5.322,22.533
			C176.227,304.59,179.821,273.546,179.821,273.546z"/>
		<path style="opacity:0.31;fill:#373F48;" d="M182.082,286.833c0,0-6.542,15.948-5.235,23.966c1.307,8.017,2.427,0.417,3.414-2.679
			C181.247,305.024,182.082,286.833,182.082,286.833z"/>
		<path style="fill:#21262C;" d="M213.677,247.249c0,0,9.441-13.897,11.326-11.813C226.889,237.52,213.677,247.249,213.677,247.249z
			"/>
		<path style="fill:#E0E4E5;" d="M141.189,220.278c1.575,4.67,13.313,0.806,25.527,1.428c0.037,0.018,0.055,0.018,0.055,0.018
			c1.172,0.037,2.344,0.128,3.516,0.293c1.227,0.183,2.472,0.146,3.662-0.22c5.109-1.593,12.159-4.78,11.225-5.86l10.145-22.707
			c4.248-6.886-2.307-38.658-2.637-43.327c-0.073-0.659-0.22-1.282-0.439-1.831l-7.545-4.651l-4.046-1.489
			c0,0,4.385,13.682,2.948,26.668c-0.351,3.17,0.366,6.355,0,10.072c-0.366,3.736-0.005,7.736-0.005,10.449
			c0,4.594-5.88,6.545-9.139,5.812c-3.26-0.751-31.766,6.94-31.766,6.94s0,0.018-0.018,0.037c0.421,3.662,0.439,7.361,0.073,11.024
			C142.38,216.798,140.933,219.49,141.189,220.278z"/>
		<path style="fill:#21262C;" d="M214.698,250.508c0,0,9.206-2.838,12.054-8.229C229.6,236.888,219.809,257.466,214.698,250.508z"/>
		<path style="fill:#21262C;" d="M226.158,287.888c0.451,1.447,0.871,2.798,1.286,4.054c3.436-1.514,7.686-9.505,2.904-33.668
			C230.859,261.505,230.063,282.352,226.158,287.888z"/>
		<path style="fill:#94633A;" d="M160.095,135.402l0.001,0.024l0.024-0.002C160.12,135.424,160.119,135.4,160.095,135.402z"/>
		<path style="fill:#F4AA82;" d="M180.869,140.854c-0.85-0.866-1.946-1.095-3.398-2.311l2.941-12.739l0.466-1.865
			c1.076-4.56-15.568-10.023-16.669-5.486l-2.78,17.446C156.153,137.333,191.326,151.865,180.869,140.854z"/>
		<path style="fill:#94633A;" d="M142.683,201.873c0.417,3.672,0.426,7.392,0.069,11.063c-0.369,3.864-1.824,6.563-1.559,7.344
			c1.565,4.665,13.315,0.809,25.531,1.418c-0.583-0.061-3.159-1.088-4.818-2.534c-1.451-1.216-2.198-2.766-0.355-4.255
			c2.557-2.065,6.035-8.438,8.551-15.14c1.107-2.846,2.018-5.753,2.582-8.397c0.153-0.662,0.284-1.298,0.367-1.907
			c0.058-0.245,0.09-0.513,0.123-0.757c0.81-5.752,0.321-6.64-0.445-7.705c0,0,0,0-0.025-0.023c-0.423-0.603-0.946-1.247-1.36-2.889
			c-1.148-4.57,1.536-9.3,1.661-12.014c0.147-2.74-2.457-10.99-3.26-14.252c-0.779-3.263,3.043-4.39,3.66-7.351
			c-3.482-3.606-10.211-8.561-12.29-11.745c-0.25-0.54-0.429-0.699-0.566-0.57c-0.979,0.978-1.91,1.977-2.971,2.791
			c-0.877,0.681-1.836,1.199-2.956,1.461c-10.442,2.327-17.091,6.236-17.99,9.335c-0.757,2.656,0.001,12.324,0.233,14.943
			c0,0,2.139,18.476,2.926,24.252c0.05,0.432,0.096,0.792,0.137,1.055c0.326,2.179,1.304,7.532,2.183,12.046
			c0.242,1.194,0.413,2.415,0.534,3.616C142.674,201.728,142.679,201.801,142.683,201.873z"/>
		<path style="opacity:0.26;fill:#94633A;" d="M142.753,212.936c0.356-3.671,0.348-7.391-0.069-11.063
			c-0.004-0.072-0.009-0.145-0.037-0.215c-0.144-1.202-0.302-2.422-0.534-3.616c-0.879-4.513-3.016-15.078-3.342-17.257
			c-0.04-0.264,7.092-21.32,7.824-27.164c3.811,9.138,1.786,18.633,0.653,26.647c-1.489,10.536,20.29,8.189,25.436,11.104
			c10.514,5.955-18.661,9.411-23.658,11.001c0,0-3.694,1.731-2.38,5.058c1.338,3.326,4.625,7.306,6.893,7.651
			c2.268,0.345-3.105,1.784-5.128,0.312c-2-1.498-4.953-4.362-4.36-2.949c0.593,1.414,5.182,7.32,11.184,6.689
			c1.946-0.191,4.341-0.143,6.671,0.029c1.659,1.446,4.234,2.473,4.818,2.534c-12.216-0.61-23.966,3.247-25.531-1.418
			C140.929,219.499,142.384,216.8,142.753,212.936z"/>
		<g>
			<path style="fill:#94633A;" d="M120.218,193.374l-0.038-0.626c-0.028-0.621-0.031-1.248-0.009-1.87l0.126-1.345
				c0.103-0.86,4.595-19.103,6.086-22.747c1.492-3.64,7.238-16.564,7.293-16.672c2.514-4.877,6.91-12.837,11.321-3.601
				c2.365,4.951,4.494,16.333,0.591,23.726c-5.216,8.633-3.568,16.076-7.396,17.301c0.289,0.128,0.9,0.253,1.714,0.379
				c-7.608,1.416-13.515,3.743-19.631,7.016C120.264,194.48,120.255,193.98,120.218,193.374z"/>
			<path style="opacity:0.26;fill:#94633A;" d="M137.563,150.28c0,0-12.24,19.73-12.333,26.626
				C128.199,169.487,137.563,150.28,137.563,150.28z"/>
			<path style="opacity:0.26;fill:#94633A;" d="M138.656,150.68c0,0-13.426,26.227-12.47,33.283
				C129.897,174.361,138.656,150.68,138.656,150.68z"/>
			<path style="opacity:0.26;fill:#94633A;" d="M142.209,177.239c0,0,1.778-13.945-0.745-12.243
				C138.941,166.698,141.9,174.096,142.209,177.239z"/>
			<path style="opacity:0.26;fill:#94633A;" d="M141.632,181.98c0,0-0.649-9.61-1.573-8.347
				C139.135,174.896,141.177,179.842,141.632,181.98z"/>
			<path style="opacity:0.26;fill:#94633A;" d="M130.484,189.714c3.668-3.451,7.708-2.175,7.708-2.175
				c-3.338,0.086-5.595,1.593-6.732,2.527c-0.831,0.275-1.654,0.564-2.458,0.868C129.48,190.588,129.973,190.196,130.484,189.714z"
				/>
			<path style="opacity:0.26;fill:#94633A;" d="M136.754,188.228c0,0-0.085,0.145-0.229,0.398c-0.08,0.019-0.157,0.041-0.236,0.061
				C136.451,188.531,136.583,188.388,136.754,188.228z"/>
		</g>
		<path style="fill:#94633A;" d="M187.275,190.121c-1.052,6.54-3.338,22.579-2.101,25.814c0,0,15.744,12.525,12.42-11.509
			l-0.002-0.024c-0.096-0.792-0.219-1.606-0.368-2.467c-0.853-4.878-0.965-9.897-0.003-14.74
			c2.872-14.746-4.245-33.209-4.542-37.299c-0.525-4.656-4.123-6.479-10.488-9.813c-0.851-0.48-3.581-1.727-4.531-2.249l-0.19,0.708
			c2.762,1.498,4.948,5.551,5.517,8.151c0.063,0.238,0.102,0.477,0.164,0.715c1.01,4.675,2.398,11.598,2.436,15.003
			C185.652,167.82,188.303,183.583,187.275,190.121z"/>
		<path style="opacity:0.16;fill:#94633A;" d="M150.729,145.492c0,0,7.276,21.087,9.268,29.206
			c1.587,6.621,10.207,12.862,13.053,14.767c0.058-0.245,0.09-0.513,0.123-0.757c0.81-5.752,0.321-6.64-0.445-7.705
			c0,0,0,0-0.025-0.023c-1.87-0.949-4.89-2.53-7.375-6.438C158.619,163.956,152.087,140.021,150.729,145.492z"/>
		<path style="opacity:0.26;fill:#94633A;" d="M177.472,138.543c2.49,1.408,4.518,4.278,5.517,8.151
			c0.063,0.238,0.102,0.477,0.164,0.715c0,0,0.35-3.38,1.414-3.759c0.59-0.229-0.691-2.097-2.375-3.565
			c-0.851-0.48-3.581-1.727-4.531-2.249L177.472,138.543z"/>
		<path style="opacity:0.55;fill:#94633A;" d="M185.174,215.936c0,0,15.744,12.525,12.42-11.509
			c0.023-0.025-0.002-0.024-0.002-0.024c-2.586-6.754-6.419-15.34-6.994-17.649c-0.833-3.356-5.01-24.342-5.01-24.342
			c0.064,5.409,2.715,21.172,1.687,27.71C186.223,196.661,183.938,212.7,185.174,215.936z"/>
		<path style="opacity:0.55;fill:#94633A;" d="M184.699,143.423c0,0,0.327,3.255,1.781,3.783c-1.584-0.549-2.597-1.214-2.884-2.024
			C183.917,143.859,184.699,143.423,184.699,143.423z"/>
		<path style="opacity:0.32;fill:#94633A;" d="M157.579,134.951c-0.098,2.76,5.613,5.675,7.478,7.736
			c1.996,2.223,1.898,5.37,1.898,5.37s2.21-1.004,3.699-2.352c1.487-1.371,2.752-1.231,2.752-1.231
			c-3.482-3.606-10.211-8.561-12.29-11.745c-0.25-0.54-0.429-0.699-0.566-0.57C159.57,133.138,158.64,134.137,157.579,134.951z"/>
		<path style="opacity:0.49;fill:#F4AA82;" d="M171.121,135.027c4.315,9.1,10.931,9.14,9.27,6.009
			c-0.655-1.106-1.272-1.515-2.919-2.493l2.941-12.739l-9.263-3.448C171.149,122.356,168.315,129.11,171.121,135.027z"/>
		<path style="fill:#F4AA82;" d="M170.115,124.456c0.959,4.216,2.897,10.228,8.277,13.269c1.288,0.728,2.847,0.786,4.232,0.265
			c4.45-1.674,7.368-7.66,9.195-14.726c1.164-4.501,3.03-11.513,1.673-14.921c-3.853-9.682-3.201-8.05-15.043-9.191
			C166.427,96.728,157.07,118.071,170.115,124.456z"/>
		<path style="fill:#603B32;" d="M193.926,112.604c0,0-2.506,1.307-10.902,0.501c-7.826-1.569-6.891-0.989-8.455,5.116
			c-0.827,6.531-11.814,9.372-11.814,9.372l0.219-1.372c0.236-1.478,0.164-2.978-0.226-4.423c-1.4-5.183-3.546-18.571,10.662-22.639
			C193.15,93.505,195.417,109.311,193.926,112.604z"/>
		<path style="fill:#F4AA82;" d="M169.996,119.723c0.573,2.341,2.284,3.934,3.824,3.558c1.54-0.377,0.962-2.91,1.751-4.921
			c0.88-2.244-1.628-4.094-3.824-3.558C169.373,115.383,169.424,117.382,169.996,119.723z"/>
		<path style="opacity:0.26;fill:#3D504A;" d="M201.473,336.818c5.896-0.879,9.687,0.513,10.383,0.788
			c-0.861-0.55-1.959-1.026-3.278-1.41c-3.095-0.897-5.787-2.966-8.021-5.457C201.528,334.748,195.723,337.678,201.473,336.818z"/>
	</g>
	<g>
		<g>
			<path style="fill:#D1D4D0;" d="M206.395,351.9c0,2.078,4.351,3.763,9.718,3.763c5.367,0,9.718-1.685,9.718-3.763
				s-4.351-3.763-9.718-3.763C210.745,348.137,206.395,349.822,206.395,351.9z"/>
			<path style="fill:#E0E4E5;" d="M216.646,225.706l-4.785,102.955c-0.146,3.136,2.278,5.796,5.414,5.942
				c3.103,0.144,5.74-2.233,5.937-5.32l6.487-102.862c0.227-3.603-2.509-6.708-6.112-6.935c-3.603-0.227-6.708,2.509-6.935,6.112
				C216.651,225.622,216.648,225.681,216.646,225.706z"/>
			<path style="fill:#E0E4E5;" d="M214.431,318.439l-1.605,27.456c-0.106,1.817,1.281,3.376,3.098,3.482
				c1.775,0.104,3.305-1.224,3.473-2.98l2.59-27.381c0.197-2.084-1.333-3.933-3.416-4.13c-2.084-0.197-3.933,1.332-4.13,3.416
				C214.438,318.343,214.434,318.399,214.431,318.439z"/>
		</g>
		<g>
			<path style="fill:#D1D4D0;" d="M81.33,322.759c0,2.334,4.351,4.225,9.718,4.225c5.367,0,9.718-1.892,9.718-4.225
				c0-2.333-4.351-4.225-9.718-4.225C85.681,318.534,81.33,320.426,81.33,322.759z"/>
			<path style="fill:#E0E4E5;" d="M127.659,208.506l-35.277,90.879c-1.204,3.101,0.334,6.591,3.435,7.795
				c3.064,1.19,6.511-0.304,7.753-3.332l36.955-90.209c1.45-3.54-0.244-7.585-3.784-9.035c-3.54-1.45-7.585,0.244-9.035,3.783
				C127.695,208.416,127.671,208.478,127.659,208.506z"/>
			<path style="fill:#E0E4E5;" d="M97.029,292.133l-9.252,26.306c-0.64,1.819,0.316,3.813,2.136,4.453
				c1.776,0.625,3.72-0.278,4.407-2.013l10.234-25.941c0.814-2.063-0.199-4.396-2.262-5.209c-2.063-0.814-4.396,0.199-5.209,2.262
				C97.065,292.034,97.044,292.091,97.029,292.133z"/>
		</g>
		<g>
			<path style="fill:#D1D4D0;" d="M281.481,296.346c0,2.174-4.351,3.937-9.718,3.937s-9.718-1.763-9.718-3.937
				c0-2.174,4.351-3.936,9.718-3.936S281.481,294.172,281.481,296.346z"/>
			<path style="fill:#E0E4E5;" d="M265.078,197.669l0.872,72.927c0.038,3.211,2.672,5.782,5.883,5.744
				c3.161-0.038,5.703-2.6,5.744-5.744l0.872-72.927c0.044-3.692-2.913-6.721-6.605-6.765c-3.692-0.044-6.721,2.913-6.765,6.605
				C265.077,197.551,265.077,197.626,265.078,197.669z"/>
			<path style="fill:#E0E4E5;" d="M267.887,262.342l0.505,30.068c0.031,1.861,1.565,3.345,3.427,3.314
				c1.821-0.031,3.281-1.507,3.314-3.314l0.505-30.068c0.036-2.14-1.67-3.905-3.81-3.941c-2.14-0.036-3.905,1.67-3.941,3.81
				C267.887,262.25,267.887,262.304,267.887,262.342z"/>
		</g>
		<g>
			<path style="fill:#D1D4D0;" d="M395.77,312.419c-0.075,2.332-4.484,4.083-9.849,3.911c-5.364-0.172-9.652-2.202-9.577-4.535
				c0.075-2.332,4.484-4.084,9.848-3.911C391.556,308.057,395.844,310.087,395.77,312.419z"/>
			<path style="fill:#E0E4E5;" d="M362.918,199.925l14.299,92.856c0.506,3.288,3.582,5.542,6.87,5.036
				c3.247-0.5,5.486-3.513,5.053-6.755l-12.511-93.113c-0.509-3.791-3.996-6.452-7.787-5.942c-3.791,0.509-6.451,3.996-5.942,7.787
				C362.903,199.826,362.913,199.893,362.918,199.925z"/>
			<path style="fill:#E0E4E5;" d="M378.205,285.835l4.404,24.211c0.345,1.898,2.163,3.156,4.061,2.811
				c1.846-0.336,3.086-2.073,2.835-3.914l-3.37-24.376c-0.304-2.197-2.331-3.732-4.528-3.428c-2.197,0.304-3.732,2.331-3.428,4.528
				C378.185,285.718,378.196,285.784,378.205,285.835z"/>
		</g>
		<path style="fill:#D1D4D0;" d="M36.55,206.815c0,0,34.057-5.747,55.082-5.862c27.611,0.626,52.519,3.346,65.513,3.346
			c10.576,0,78.383-9.926,103.248-13.619c6.14-0.912,12.691-1.261,19.243-1.03c23.545,0.828,81.75,3.207,104.939,7.166l9.766-0.601
			c0,0,0.93,2.952-0.061,4.326c-3.248,7.518-127.424,28.49-166.404,32.249c-34.485,3.325-154.716-7.614-183.229-16.624
			C34.345,212.91,36.55,206.815,36.55,206.815z"/>
		<path style="fill:#E0E4E5;" d="M260.393,186.813c6.14-0.912,12.691-1.261,19.243-1.031c30.183,1.062,117.331,4.672,114.644,10.891
			c-3.248,7.518-123.44,28.191-162.421,31.95c-34.485,3.325-154.979-5.467-191.507-16.98c-6.258-1.973-4.826-8.138,3.242-10.074
			c18.233-4.376,27.013-4.369,48.038-4.484c27.611,0.626,52.52,3.346,65.513,3.346C167.721,200.432,235.528,190.506,260.393,186.813
			z"/>
	</g>
	<g>
		<path style="opacity:0.53;fill:#C19374;" d="M398.978,191.82c-2.027,0.15-4.053,0.41-6.032,0.901
			c-1.875,0.528-4.211,1.022-5.067,3.081c-0.238,0.549,0.307,1.2,0.872,1.165c0.54,0.052,1.063-0.058,1.553-0.221l2.884-0.98
			c0.962-0.285,1.929-0.655,2.908-0.645c0.952,0.16,1.902,0.612,2.877,0.877l0.014-0.03c-0.947-0.371-1.84-0.866-2.874-1.087
			c-1.065-0.065-2.063,0.263-3.026,0.577l-2.877,1c-0.47,0.153-0.959,0.277-1.433,0.255c-0.494,0.016-0.867-0.378-0.722-0.869
			c0.286-0.916,1.129-1.671,2.039-2.044c0.931-0.385,1.92-0.62,2.908-0.835c1.981-0.413,3.975-0.775,5.979-1.113L398.978,191.82z"/>
		<g>
			<polygon style="fill:#C19374;" points="398.98,173.345 355.284,164.647 302.563,169.324 349.367,180.803 			"/>
			<polygon style="fill:#C19374;" points="398.98,173.345 355.284,164.647 302.563,169.324 349.367,180.803 			"/>
			<polygon style="fill:#E2B795;" points="398.98,173.345 398.98,197.532 349.367,207.454 349.367,180.803 			"/>
			<polygon style="fill:#C19374;" points="349.367,207.454 302.563,194.834 302.563,169.324 349.367,180.803 			"/>
			<path style="fill:#C19374;" d="M398.969,180.738l-24.884,3.748c-4.147,0.63-8.306,1.185-12.426,1.972
				c-4.114,0.82-8.232,1.617-12.303,2.692l0.022,0.131c4.198-0.326,8.349-0.932,12.503-1.514c4.149-0.615,8.259-1.462,12.381-2.234
				l24.729-4.664L398.969,180.738z"/>
			<path style="fill:#C19374;" d="M398.968,190.335c-4.205,0.404-8.357,1.086-12.514,1.745c-4.151,0.692-8.258,1.615-12.379,2.464
				l-24.721,5.123l0.025,0.13l24.893-4.209c4.148-0.707,8.309-1.339,12.428-2.202c4.112-0.896,8.229-1.77,12.293-2.921
				L398.968,190.335z"/>
			<path style="fill:#C19374;" d="M302.546,176.707l5.707,2.105l5.769,1.877c3.854,1.221,7.756,2.26,11.634,3.394
				c3.925,0.957,7.821,2.021,11.769,2.889l5.932,1.267l5.993,1.041l0.034-0.128c-15.582-4.262-31.183-8.453-46.804-12.572
				L302.546,176.707z"/>
			<path style="opacity:0.53;fill:#C19374;" d="M349.371,199.715c-3.876-1.139-7.762-2.238-11.673-3.249
				c-3.912-1.005-7.827-1.997-11.71-3.109l-11.683-3.212c-3.895-1.068-7.827-1.997-11.739-3.003l-0.009,0.032
				c3.889,1.09,7.758,2.256,11.663,3.284l11.719,3.074c3.918,0.983,7.803,2.087,11.692,3.177c3.89,1.085,7.804,2.081,11.729,3.038
				L349.371,199.715z"/>
			<path style="opacity:0.53;fill:#C19374;" d="M349.375,183.453c1.494-0.747,3.048-1.372,4.633-1.881
				c1.579-0.471,3.257-0.897,4.877-0.58c0.396,0.088,0.788,0.206,1.12,0.435c0.328,0.215,0.66,0.536,1.103,0.652
				c0.874,0.227,1.724,0.027,2.546-0.117c1.653-0.324,3.242-0.872,4.841-1.347c3.194-0.969,6.437-1.794,9.731-2.351
				c1.643-0.267,3.314-0.501,4.973-0.439c0.828,0.066,1.656,0.187,2.466,0.368c0.403,0.095,0.806,0.204,1.179,0.366
				c0.359,0.144,0.786,0.441,0.503,0.748c-2.413,2.063-6.067,3.474-9.104,1.689c-1.758-0.337-3.383,0.343-4.987,0.751
				c-1.606,0.472-3.197,0.999-4.782,1.525c-1.592,0.54-3.158,1.017-4.841,1.015c-1.663,0.089-3.34,0.186-4.984-0.016
				c-1.714-0.089-3.369,0.298-4.952,0.857c-0.388,0.16-0.782,0.322-1.121,0.589c-0.383,0.262-0.378,0.781-0.794,0.939
				c-0.721,0.404-1.592,0.467-2.415,0.486l-0.001,0.033c0.83-0.005,1.698-0.046,2.457-0.451c0.445-0.174,0.472-0.721,0.816-0.927
				c0.326-0.247,0.718-0.402,1.102-0.551c1.561-0.524,3.251-0.873,4.876-0.757c1.676,0.237,3.359,0.169,5.03,0.112
				c1.688,0.043,3.364-0.49,4.927-1.021c1.586-0.531,3.169-1.059,4.769-1.532c1.582-0.418,3.244-1.07,4.821-0.758
				c0.762,0.225,1.54,0.647,2.389,0.777c0.866,0.144,1.726-0.003,2.539-0.225c1.607-0.504,3.191-1.181,4.414-2.417
				c0.163-0.174,0.168-0.528-0.03-0.684c-0.166-0.169-0.364-0.265-0.56-0.35c-0.396-0.165-0.806-0.27-1.216-0.362
				c-0.824-0.173-1.655-0.285-2.494-0.341c-1.687-0.039-3.345,0.222-5.001,0.451c-3.308,0.515-6.569,1.299-9.782,2.234
				c-1.607,0.467-3.202,0.961-4.827,1.307c-0.802,0.155-1.653,0.346-2.416,0.151c-0.381-0.092-0.677-0.371-1.044-0.609
				c-0.365-0.244-0.791-0.367-1.207-0.454c-1.702-0.309-3.386,0.152-4.973,0.643c-1.592,0.529-3.121,1.226-4.597,2.012
				L349.375,183.453z"/>
			<path style="opacity:0.53;fill:#C19374;" d="M398.98,174.55c-0.834,0.001-1.682,0.007-2.501,0.273
				c-0.46,0.096-0.697,0.551-1.002,0.763c-0.323,0.247-0.685,0.452-1.052,0.64c-0.734,0.357-1.524,0.706-2.304,0.793
				c-0.793-0.016-1.651-0.109-2.479-0.15c-3.382-0.397-6.643,0.726-9.978,0.78c-3.33,0.231-6.67,0.448-9.971,1.078
				c-1.661,0.336-3.219,0.89-4.869,1.143c-1.62,0.286-3.378,0.389-4.759-0.688l-0.017,0.029c0.691,0.435,1.411,0.976,2.292,0.998
				c0.844,0.079,1.689,0.01,2.52-0.101c1.667-0.199,3.293-0.711,4.898-1.064c3.263-0.631,6.605-0.853,9.922-1.214
				c3.342-0.189,6.611-1.195,9.945-0.71c0.838,0.049,1.64,0.196,2.516,0.185c0.882-0.122,1.638-0.495,2.39-0.878
				c0.371-0.201,0.734-0.418,1.069-0.686c0.365-0.279,0.52-0.67,0.938-0.76c0.768-0.269,1.615-0.355,2.443-0.398V174.55z"/>
			<path style="opacity:0.53;fill:#C19374;" d="M398.98,177.727c-2.072-0.014-4.16,0.116-6.191,0.62
				c-2.059,0.547-3.745,1.809-5.677,2.538c-1.904,0.796-3.913,1.322-5.952,1.667c-2.04,0.344-4.123,0.389-6.177,0.689
				c-4.123,0.486-8.189,1.342-12.271,2.007c-2.024,0.405-4.121,0.29-6.159,0.846c-2.018,0.527-3.947,1.326-5.788,2.28l0.015,0.029
				c1.865-0.896,3.814-1.635,5.824-2.095c1.995-0.481,4.112-0.298,6.158-0.74c4.097-0.676,8.149-1.532,12.245-2.147
				c4.078-0.575,8.316-0.676,12.199-2.303c0.967-0.384,1.918-0.816,2.833-1.306c0.92-0.487,1.81-1,2.809-1.246
				c1.988-0.529,4.069-0.696,6.132-0.807L398.98,177.727z"/>
			<path style="opacity:0.53;fill:#C19374;" d="M398.979,183.05c-4.202,0.327-8.417,1.145-12.347,2.71
				c-3.968,1.419-8.211,1.948-12.421,1.996c-4.218-0.07-8.46,0.24-12.635,0.895c-2.085,0.335-4.187,0.677-6.173,1.494
				c-1.838,1.047-3.948,1.45-6.037,1.675l0.002,0.033c2.091-0.161,4.243-0.508,6.126-1.507c1.948-0.731,4.067-1.01,6.132-1.375
				c4.166-0.661,8.365-0.972,12.591-1.034c4.212-0.182,8.464-0.593,12.497-1.94c3.95-1.489,8.079-2.396,12.268-2.915L398.979,183.05
				z"/>
			<path style="opacity:0.53;fill:#C19374;" d="M349.374,194.099c3.959-1.519,8.209-2.114,12.423-2.134
				c2.113-0.013,4.218,0.242,6.317,0.529c2.063,0.239,4.306,0.716,6.292-0.291c3.59-2.273,7.738-3.521,11.958-3.639
				c2.119-0.038,4.241-0.185,6.351-0.387c2.1-0.252,4.25-0.324,6.274-1.004l-0.019-0.027c-4.102,0.959-8.408,0.876-12.618,1.095
				c-4.258,0.119-8.515,1.416-12.029,3.801c-1.893,0.987-4.135,0.631-6.192,0.329c-2.091-0.33-4.203-0.631-6.332-0.656
				c-4.244-0.058-8.547,0.656-12.44,2.355L349.374,194.099z"/>
			<path style="opacity:0.53;fill:#C19374;" d="M349.376,197.173c2.26-1.288,4.645-2.444,7.193-2.888
				c1.271-0.147,2.607-0.182,3.895-0.365c1.217-0.139,2.823-0.383,3.519,0.753c0.123,0.26-0.207,0.434-0.498,0.506
				c-0.301,0.081-0.623,0.11-0.943,0.127c-0.643,0.023-1.294-0.016-1.948-0.026c-1.306-0.029-2.626-0.055-3.94,0.149
				c-0.652,0.11-1.313,0.262-1.915,0.577c-0.608,0.339-1.08,0.738-1.676,1.012c-1.16,0.568-2.42,0.941-3.699,1.188l0.004,0.033
				c1.303-0.137,2.59-0.465,3.798-1.004c0.608-0.249,1.169-0.673,1.714-0.946c0.571-0.264,1.191-0.438,1.826-0.541
				c1.272-0.205,2.579-0.189,3.881-0.166c0.653,0.015,1.308,0.027,1.971-0.023c0.331-0.031,0.663-0.072,0.989-0.173
				c0.275-0.065,0.798-0.334,0.603-0.785c-0.378-0.623-1.073-0.897-1.734-0.918c-0.664-0.026-1.313,0.067-1.965,0.109
				c-1.307,0.141-2.591,0.127-3.918,0.241c-2.635,0.381-5.017,1.662-7.176,3.109L349.376,197.173z"/>
			<path style="opacity:0.53;fill:#C19374;" d="M349.369,201.434c3.384-0.419,6.768-0.879,10.136-1.43
				c3.37-0.536,6.736-1.086,10.064-1.849c3.332-0.707,6.755-0.702,10.161-0.953c1.698-0.124,3.437-0.304,5.041-0.983l4.658-2.12
				l-0.012-0.031l-4.731,1.948c-1.577,0.597-3.296,0.707-4.981,0.863c-3.385,0.258-6.841,0.256-10.176,1.098
				c-1.662,0.38-3.313,0.813-5,1.073l-5.068,0.706c-3.377,0.475-6.737,1.038-10.098,1.645L349.369,201.434z"/>
			<path style="opacity:0.53;fill:#C19374;" d="M349.372,204.154c4.134-1.126,8.341-1.969,12.59-2.437
				c2.125-0.226,4.269-0.251,6.411-0.345c1.068-0.058,2.149-0.059,3.208-0.288c1.056-0.236,2.055-0.64,3.064-0.996
				c3.987-1.524,8.27-2.332,12.526-2.328c2.143-0.04,4.291-0.157,6.424-0.424c1.066-0.12,2.128-0.337,3.172-0.547
				c0.525-0.083,1.056-0.173,1.587-0.158c0.256,0.023,0.545,0.034,0.734,0.206c0.201,0.186,0.037,0.498-0.121,0.684l0.024,0.023
				c0.163-0.183,0.362-0.507,0.138-0.745c-0.213-0.202-0.507-0.213-0.771-0.247c-0.543-0.031-1.078,0.045-1.611,0.113
				c-1.062,0.181-2.108,0.363-3.176,0.453c-2.129,0.2-4.268,0.244-6.408,0.319c-4.318,0.008-8.602,0.825-12.58,2.481
				c-1.004,0.372-1.995,0.791-3.029,1.039c-1.036,0.244-2.115,0.269-3.184,0.289c-2.141,0.05-4.288,0.03-6.431,0.22
				c-4.28,0.394-8.496,1.348-12.576,2.656L349.372,204.154z"/>
			<path style="opacity:0.53;fill:#C19374;" d="M349.37,205.929c1.73-0.255,3.444-0.625,5.123-1.136
				c1.704-0.459,3.213-1.472,4.92-1.678c3.457,0.028,6.989-0.369,10.419-0.958c1.725-0.284,3.449-0.579,5.158-0.956
				c1.721-0.342,3.386-0.897,5.106-1.115c3.446-0.481,6.938-0.643,10.43-0.846l-0.007-0.033c-3.481,0.114-6.996,0.031-10.472,0.558
				c-3.466,0.658-6.794,1.612-10.247,2.212c-1.717,0.307-3.438,0.623-5.176,0.776c-1.738,0.243-3.465-0.021-5.24,0.112
				c-1.818,0.156-3.306,1.225-4.961,1.711c-1.654,0.538-3.354,0.942-5.059,1.32L349.37,205.929z"/>
		</g>
		<path style="fill:#3A4D39;" d="M389.424,174.567c0,0-0.938-3.249-4.728-2.951c-3.791,0.299-6.636,3.703-9.82,0
			c-3.183-3.703-5.993-2.292-8.381-2.292c-2.389,0-3.07,0.064-6.439-1.2c-3.369-1.264-3.502-3.073-4.594-1.642
			c-1.092,1.431-0.285,3.343-4.69,2.598c-4.404-0.745-5.378-2.449-7.839-0.649c-2.462,1.799-5.545,2.574-8.78,1.831
			c-3.235-0.743,1.04-2.543-4.955-1.182c-5.996,1.361-10.604,1.531-11.645,1.182c-1.041-0.349-3.614,1.852-1.121,2.464
			c2.492,0.611,2.492,0.611,6.232,1.528c3.65,0.895,26.704,6.55,26.704,6.55L389.424,174.567z"/>
		<path style="fill:#5AA56B;" d="M330.471,176.28c0,0-2.698-12.099-4.601-9.407c-1.903,2.693-2.537,7.145-2.663,9.407
			c-0.127,2.261,2.309-4.329,2.79-4.899C327.348,169.781,330.471,176.28,330.471,176.28z"/>
		<path style="fill:#5AA56B;" d="M323.202,173.156c0,0-3.093-6.42-5.03-5.131c-1.937,1.289-2.125,14.13-0.943,18.314
			c1.025,3.629,3.178,6.482,4.296-1.076c0.305-2.06,0.182-4.179-0.15-6.231C320.767,175.281,323.202,173.156,323.202,173.156z"/>
		<path style="fill:#5AA56B;" d="M366.193,169.296c2.106-2.42,0.779-7.684,11.867-7.263c11.088,0.421,12.105,2.396,10.122,3.62
			c-14.008-1.821-15.919,0.304-15.757,6.392C370.951,173.097,366.193,169.296,366.193,169.296z"/>
		<path style="fill:#3A4D39;" d="M303.753,169.331c0,0,6.857,5.416,12.518-1.509c5.661-6.925,7.394,3.84,7.394,3.84
			s1.923-3.88-0.279-7.334c-2.202-3.454-7.402-5.864-9.384-2.363C312.021,165.465,303.753,169.331,303.753,169.331z"/>
		<path style="fill:#5AA56B;" d="M340.276,178.574c-1.045-2.419-1.071-7.32-6.572-6.899c-5.501,0.421-6.409,5.263-5.426,6.487
			c0.984,1.224,6.777-3.996,8.375-0.476C338.264,178.113,340.276,178.574,340.276,178.574z"/>
		<path style="fill:#5AA56B;" d="M323.202,173.345c0,0-9.35-6.97-12.783-2.095c-3.433,4.876-5.96,6.227-5.328,9.553
			c0.632,3.326,3.58,8.878,4.633,4.206c0.922-4.087-1.382-4.863,0.849-6.499c0.832-0.61,1.634-1.262,2.374-1.98
			C317.768,171.858,323.202,173.345,323.202,173.345z"/>
		<path style="fill:#3A4D39;" d="M377.948,174.931c0,0,8.236-2.92,5.388-11.4c-2.848-8.48,7.187-4.214,7.187-4.214
			s-2.26-3.694-6.356-3.669c-4.096,0.025-8.905,3.143-6.996,6.685C379.078,165.874,377.948,174.931,377.948,174.931z"/>
		<path style="fill:#3A4D39;" d="M344.257,177.039c0,0-5.484,3.478-8.464-1.814c-2.98-5.292-5.642,2.317-5.642,2.317
			s-0.805-2.892,1.189-5.237c1.994-2.345,5.922-3.766,6.819-1.142C339.056,173.787,344.257,177.039,344.257,177.039z"/>
		<path style="fill:#5AA56B;" d="M384.124,174.927c0,0-1.43-6.954,2.786-14.252c0.896-1.55,2.111-2.616,3.426-2.637
			c2.597-0.042,4.113,3.367,3.699,6.201c-0.081,0.553-0.476,0.589-1.069,0.439c-3.427-0.873-3.001,3.328-4.328,8.488
			C388.14,175.098,384.124,174.927,384.124,174.927z"/>
		<path style="fill:#5AA56B;" d="M323.976,168.178c0,0,9.547-12.923,16.279-10.231c6.731,2.693,8.975,7.145,9.424,9.407
			c0.449,2.261-8.592-2.098-9.918-3.308c-3.397-3.102-6.145,1.91-9.276,3.154C326.064,167.864,323.976,168.178,323.976,168.178z"/>
		<path style="fill:#5AA56B;" d="M340.59,169.925c2.106-2.419,0.779-7.684,11.867-7.263c11.088,0.421,12.105,2.396,10.122,3.62
			c-14.008-1.821-15.919,0.304-15.757,6.392C345.348,173.726,340.59,169.925,340.59,169.925z"/>
		<path style="fill:#5AA56B;" d="M361.455,175.554c0,0-1.009-11.281,1.967-23.122c0.632-2.514,1.49-4.243,2.418-4.277
			c1.834-0.067,2.903,5.462,2.611,10.06c-0.057,0.898-0.336,0.956-0.755,0.711c-2.419-1.415-2.119,5.399-3.055,13.769
			C364.29,175.831,361.455,175.554,361.455,175.554z"/>
		<path style="fill:#5AA56B;" d="M359.555,174.091c-1.714-2.093-0.634-6.647-9.66-6.283c-9.026,0.364-9.854,2.073-8.24,3.131
			c11.403-1.575,12.959,0.263,12.827,5.529C355.681,177.379,359.555,174.091,359.555,174.091z"/>
		<path style="fill:#3A4D39;" d="M349.986,178.966c0,0-6.704-2.526-4.386-9.861c2.318-7.335-5.851-3.646-5.851-3.646
			s1.84-3.195,5.174-3.174c3.335,0.021,7.249,2.719,5.695,5.783C349.065,171.131,349.986,178.966,349.986,178.966z"/>
		<path style="fill:#5AA56B;" d="M344.958,178.962c0,0,1.164-6.015-2.268-12.329c-0.729-1.341-1.718-2.263-2.789-2.281
			c-2.114-0.036-3.348,2.912-3.011,5.364c0.066,0.479,0.388,0.51,0.87,0.379c2.79-0.755,2.444,2.879,3.523,7.342
			C341.689,179.11,344.958,178.962,344.958,178.962z"/>
		<path style="fill:#3A4D39;" d="M355.284,164.647c0,0-3.652-8.106-11.023-10.422c-7.371-2.316-5.896,5.579-2.106,5.211
			c3.791-0.367,12.215,13.29,12.215,13.29S355.988,169.804,355.284,164.647z"/>
		<path style="fill:#5AA56B;" d="M367.563,169.02c0,0,1.525-12.099,2.6-9.407c1.075,2.693,1.434,7.145,1.505,9.407
			c0.072,2.261-1.305-4.329-1.577-4.899C369.328,162.521,367.563,169.02,367.563,169.02z"/>
		<path style="fill:#5AA56B;" d="M371.671,165.896c0,0,1.748-6.42,2.843-5.131c1.095,1.289,1.201,14.13,0.533,18.314
			c-0.58,3.629-1.796,6.481-2.428-1.076c-0.172-2.06-0.103-4.179,0.085-6.231C373.047,168.021,371.671,165.896,371.671,165.896z"/>
		<path style="fill:#5AA56B;" d="M347.375,162.036c-1.19-2.42-0.44-7.684-6.706-7.263c-6.266,0.421-6.841,2.396-5.721,3.62
			c7.917-1.821,8.997,0.304,8.905,6.392C344.686,165.837,347.375,162.036,347.375,162.036z"/>
		<path style="fill:#3A4D39;" d="M382.663,162.071c0,0-3.875,5.416-7.075-1.509c-3.2-6.926-4.179,3.84-4.179,3.84
			s-1.087-3.88,0.157-7.334c1.245-3.454,4.184-5.865,5.303-2.363C377.99,158.206,382.663,162.071,382.663,162.071z"/>
		<path style="fill:#5AA56B;" d="M362.022,171.314c0.59-2.42,0.605-7.32,3.714-6.899c3.108,0.421,3.622,5.263,3.066,6.487
			c-0.556,1.224-3.83-3.996-4.733-0.476C363.159,170.854,362.022,171.314,362.022,171.314z"/>
		<path style="fill:#5AA56B;" d="M371.671,166.086c0,0,5.284-6.971,7.224-2.095c1.94,4.876,3.368,6.227,3.011,9.553
			c-0.357,3.326-2.023,8.877-2.618,4.206c-0.521-4.087,0.781-4.862-0.48-6.499c-0.47-0.61-0.923-1.262-1.342-1.98
			C374.742,164.599,371.671,166.086,371.671,166.086z"/>
		<path style="fill:#3A4D39;" d="M340.732,167.671c0,0-4.654-2.92-3.045-11.4c1.609-8.479-4.062-4.214-4.062-4.214
			s1.277-3.694,3.592-3.669c2.315,0.025,5.033,3.143,3.954,6.685C340.093,158.614,340.732,167.671,340.732,167.671z"/>
		<path style="fill:#3A4D39;" d="M359.772,169.78c0,0,3.099,3.478,4.783-1.814c1.684-5.292,3.188,2.317,3.188,2.317
			s0.455-2.892-0.672-5.237c-1.127-2.345-3.347-3.767-3.854-1.142C362.711,166.527,359.772,169.78,359.772,169.78z"/>
		<path style="fill:#5AA56B;" d="M337.242,167.667c0,0,0.808-6.954-1.574-14.253c-0.506-1.55-1.193-2.615-1.936-2.636
			c-1.468-0.042-2.325,3.367-2.09,6.201c0.046,0.553,0.269,0.589,0.605,0.438c1.937-0.873,1.696,3.328,2.446,8.488
			C334.972,167.838,337.242,167.667,337.242,167.667z"/>
		<path style="fill:#5AA56B;" d="M318.288,168.665c0,0-5.396-12.923-9.2-10.23c-3.804,2.692-5.072,7.145-5.326,9.407
			c-0.254,2.261,4.855-2.098,5.605-3.309c1.92-3.102,3.473,1.91,5.242,3.154C317.108,168.351,318.288,168.665,318.288,168.665z"/>
		<path style="fill:#5AA56B;" d="M361.844,162.666c-1.19-2.42-0.44-7.685-6.706-7.263c-6.266,0.421-6.841,2.396-5.721,3.62
			c7.917-1.821,8.997,0.304,8.905,6.392C359.155,166.467,361.844,162.666,361.844,162.666z"/>
		<path style="fill:#5AA56B;" d="M360.96,170.102c0,0-2.764-10.952-7.846-21.778c-1.079-2.299-2.05-3.809-2.561-3.688
			c-1.011,0.24,0.034,5.703,1.541,10.05c0.294,0.849,0.462,0.858,0.617,0.555c0.892-1.754,2.729,4.81,5.69,12.657
			C359.51,170.838,360.96,170.102,360.96,170.102z"/>
		<path style="fill:#5AA56B;" d="M351.127,166.832c0.969-2.093,0.358-6.647,5.459-6.283c5.101,0.364,5.569,2.072,4.657,3.131
			c-6.444-1.575-7.324,0.263-7.249,5.529C353.316,170.12,351.127,166.832,351.127,166.832z"/>
		<path style="fill:#3A4D39;" d="M356.534,171.706c0,0,3.789-2.526,2.479-9.861c-1.31-7.335,3.306-3.646,3.306-3.646
			s-1.04-3.196-2.924-3.174c-1.884,0.021-4.097,2.719-3.219,5.783C357.055,163.871,356.534,171.706,356.534,171.706z"/>
		<path style="fill:#5AA56B;" d="M363.951,177.928c0,0-0.658-6.016,1.282-12.329c0.412-1.341,0.971-2.263,1.576-2.281
			c1.195-0.036,1.892,2.913,1.702,5.364c-0.037,0.479-0.219,0.51-0.492,0.379c-1.577-0.755-1.381,2.879-1.991,7.342
			C365.799,178.077,363.951,177.928,363.951,177.928z"/>
		<path style="fill:#3A4D39;" d="M359.298,161.637c0,0,2.064-8.106,6.23-10.422c4.165-2.316,3.332,5.579,1.19,5.211
			c-2.142-0.367-6.903,13.289-6.903,13.289S358.9,166.794,359.298,161.637z"/>
		<path style="fill:#3A4D39;" d="M326.603,172.287c0,0,2.064-8.106,6.23-10.422c4.165-2.316,3.332,5.579,1.19,5.211
			c-2.142-0.367-6.903,13.29-6.903,13.29S326.205,177.444,326.603,172.287z"/>
		<path style="fill:#5AA56B;" d="M379.459,175.563c0,0-1.3-6.954,2.534-14.252c0.814-1.55,1.919-2.616,3.115-2.637
			c2.362-0.042,3.74,3.367,3.364,6.201c-0.074,0.553-0.433,0.589-0.972,0.438c-3.117-0.873-6.228,1.902-7.434,7.061
			C379.613,174.308,379.459,175.563,379.459,175.563z"/>
		<path style="fill:#5AA56B;" d="M345.985,170.412c0,0-1.921-6.211-6.252-9.351c-0.92-0.667-0.737,0.243-1.277,1.003
			c-1.067,1.503-2.797,12.682-1.61,14.624c0.232,0.379,1.687-8.495,1.873-8.962c1.074-2.698,2.224-1.556,4.616,1.642
			C344.232,170.567,345.985,170.412,345.985,170.412z"/>
		<path style="fill:#5AA56B;" d="M348.435,171.216c0,0,3.619-9.622,5.81-7.783c2.191,1.839,2.404,20.158,1.067,26.126
			c-1.16,5.178-3.594,9.247-4.859-1.535c-0.345-2.939,0.007-5.901,0.17-8.889C351.059,171.133,348.435,171.216,348.435,171.216z"/>
		<path style="fill:#5AA56B;" d="M335.091,167.747c0,0-5.396-12.923-9.2-10.23c-3.804,2.693-5.072,7.145-5.326,9.407
			c-0.254,2.261,4.856-2.098,5.605-3.309c1.92-3.102,3.473,1.91,5.242,3.154C333.911,167.433,335.091,167.747,335.091,167.747z"/>
		<path style="fill:#3A4D39;" d="M402.949,179.546c0,0-3.652-8.106-11.023-10.422c-7.371-2.317-5.897,5.578-2.106,5.211
			c3.79-0.367,12.215,13.289,12.215,13.289S403.653,184.704,402.949,179.546z"/>
		<path style="fill:#5AA56B;" d="M346.047,179.768c0,0,2.301-6.954-4.483-14.252c-1.441-1.55-3.396-2.616-5.512-2.637
			c-4.18-0.041-6.618,3.367-5.951,6.201c0.13,0.553,0.766,0.589,1.721,0.438c5.515-0.872,11.02,1.902,13.154,7.061
			C345.774,178.513,346.047,179.768,346.047,179.768z"/>
		<path style="fill:#5AA56B;" d="M368.654,177.672c0,0,3.399-6.211,11.063-9.351c1.628-0.667,1.303,0.243,2.259,1.003
			c1.888,1.503,4.948,12.682,2.848,14.624c-0.41,0.379-2.986-8.495-3.314-8.962c-1.901-2.698-3.935-1.555-8.167,1.642
			C371.755,177.826,368.654,177.672,368.654,177.672z"/>
		<path style="fill:#5AA56B;" d="M364.318,178.475c0,0-6.403-9.622-10.28-7.783s-4.254,20.158-1.888,26.126
			c2.053,5.178,6.36,9.247,8.598-1.535c0.61-2.939-0.012-5.901-0.301-8.889C359.674,178.392,364.318,178.475,364.318,178.475z"/>
		<path style="fill:#5AA56B;" d="M387.929,175.007c0,0,9.548-12.923,16.279-10.231c6.732,2.693,8.975,7.145,9.424,9.407
			c0.449,2.262-8.592-2.098-9.918-3.308c-3.397-3.102-6.145,1.91-9.276,3.154C390.017,174.693,387.929,175.007,387.929,175.007z"/>
	</g>
	<path style="fill:#F4AA82;" d="M161.866,191.277c0,0,12.702-1.416,13.455,0.621c0.753,2.038,4.124,7.08,4.124,7.08
		s-2.86,4.467-4.684,5.294c-1.824,0.827-2.536,0.691-3.44,1.163c-0.905,0.472-3.393-1.685-3.409-3.243
		c-0.017-1.558-7.485-1.539-9.109-2.041C157.18,199.652,161.866,191.277,161.866,191.277z"/>
	<path style="fill:#94633A;" d="M139.906,187.918c5.126,0.789,19.149,1.574,23.357,2.95c0,0,2.658,13.27-0.682,12.827
		c-5.42-0.719-27.748-2.877-30.516-3.542c-2.801-0.701-6.159-0.251-9.546-1.703c-2.117-0.913-2.199-1.675-2.245-3.516
		C126.392,191.662,132.298,189.334,139.906,187.918z"/>
	<path style="opacity:0.26;fill:#94633A;" d="M136.289,188.686c0.08-0.019,0.156-0.042,0.236-0.061
		c-0.992,1.753-4.795,8.775-2.776,10.001C132.628,199.54,127.572,197.077,136.289,188.686z"/>
	<g>
		<g>
			<polygon style="fill:#D1D4D0;" points="198.797,204.612 222.118,187.913 266.928,180.05 245.874,193.816 			"/>
			<path style="fill:#373F48;" d="M235.294,214.51c0.473,0,0.899-0.329,1.004-0.811c0.118-0.553-0.234-1.099-0.789-1.218
				l-33.269-7.17l17.741-12.555c0.463-0.327,0.573-0.967,0.247-1.43c-0.326-0.465-0.97-0.574-1.43-0.244l-19.649,13.904
				c-0.334,0.235-0.494,0.644-0.413,1.042c0.081,0.399,0.389,0.712,0.788,0.798l35.553,7.661
				C235.15,214.502,235.223,214.51,235.294,214.51z"/>
			<path style="fill:#373F48;" d="M283.444,203.34c0.486,0,0.915-0.344,1.009-0.837c0.103-0.557-0.263-1.093-0.82-1.197
				l-35.151-6.608l15.155-10.454c0.465-0.322,0.583-0.961,0.26-1.427c-0.318-0.469-0.962-0.583-1.427-0.263l-17.181,11.852
				c-0.339,0.235-0.507,0.653-0.42,1.058c0.087,0.405,0.407,0.719,0.815,0.795l37.571,7.062
				C283.318,203.333,283.384,203.34,283.444,203.34z"/>
			<polygon style="fill:#E0E4E5;" points="222.118,187.913 221.149,186.456 197.749,203.257 198.797,204.612 			"/>
			<polygon style="fill:#E0E4E5;" points="221.149,186.456 222.118,187.913 266.928,180.05 265.836,178.296 			"/>
			<polygon style="opacity:0.31;fill:#E0E4E5;" points="222.118,187.913 221.149,186.456 197.749,203.257 198.797,204.612 			"/>
		</g>
		<path style="fill:#21262C;" d="M266.913,176.308c0,0-0.025,1.795-1.906,2.139c-1.882,0.344-41.285,7.505-41.908,7.619
			c-0.623,0.114-1.992-0.174-2.589-1.368L266.913,176.308z"/>
		<path style="fill:#21262C;" d="M221.257,184.823c-0.456-0.23-1.185-0.125-1.529,0.132l-20.931,15.604c0,0,0.789,1.38,3.238-0.378
			c2.449-1.758,19.114-13.724,19.114-13.724l2.288-0.418L221.257,184.823z"/>
		<path style="fill:#21262C;" d="M267.607,174.375l11.15-29.349c0.226-0.594-0.257-1.218-0.889-1.147l-43.81,4.867
			c-1.617,0.18-2.979,1.289-3.483,2.836l-10.565,32.44c-0.121,0.372,0.199,0.738,0.583,0.668l44.251-8.019
			C266.105,176.443,267.153,175.571,267.607,174.375z"/>
		<path style="fill:#373F48;" d="M268.217,174.375l11.15-29.349c0.226-0.594-0.257-1.218-0.889-1.147l-43.809,4.867
			c-1.617,0.18-2.979,1.289-3.483,2.836l-10.565,32.44c-0.121,0.372,0.199,0.738,0.583,0.668l44.251-8.019
			C266.714,176.443,267.762,175.571,268.217,174.375z"/>
	</g>
</g>
</svg>
