<svg xmlns="http://www.w3.org/2000/svg" xmlns:xlink="http://www.w3.org/1999/xlink" viewBox="0 0 700 540" width="700" height="540"><path d="M 237.000,250.600 C 237.000,257.100 237.000,257.100 237.000,263.600" stroke-width="5.279" stroke="black" fill="none" stroke-linecap="round"></path><path d="M 237.000,263.600 C 237.475,269.139 237.000,269.100 237.000,274.600" stroke-width="3.820" stroke="black" fill="none" stroke-linecap="round"></path><path d="M 237.000,274.600 C 235.635,280.570 236.475,280.639 235.000,286.600" stroke-width="3.360" stroke="black" fill="none" stroke-linecap="round"></path><path d="M 235.000,286.600 C 235.000,290.100 234.635,290.070 235.000,293.600" stroke-width="3.729" stroke="black" fill="none" stroke-linecap="round"></path><path d="M 235.000,293.600 C 235.000,296.600 235.000,296.600 235.000,299.600" stroke-width="4.019" stroke="black" fill="none" stroke-linecap="round"></path><path d="M 235.000,299.600 C 235.000,302.600 235.000,302.600 235.000,305.600" stroke-width="4.115" stroke="black" fill="none" stroke-linecap="round"></path><path d="M 235.000,255.600 C 237.625,255.464 237.500,255.100 240.000,254.600" stroke-width="5.410" stroke="black" fill="none" stroke-linecap="round"></path><path d="M 240.000,254.600 C 242.875,252.168 243.125,253.464 246.000,251.600" stroke-width="5.204" stroke="black" fill="none" stroke-linecap="round"></path><path d="M 246.000,251.600 C 249.851,250.992 248.375,251.168 251.000,252.600" stroke-width="5.337" stroke="black" fill="none" stroke-linecap="round"></path><path d="M 251.000,252.600 C 251.000,255.600 252.351,254.492 251.000,258.600" stroke-width="5.195" stroke="black" fill="none" stroke-linecap="round"></path><path d="M 251.000,258.600 C 251.248,261.621 251.000,261.600 251.000,264.600" stroke-width="5.168" stroke="black" fill="none" stroke-linecap="round"></path><path d="M 251.000,264.600 C 251.295,268.009 250.748,267.621 250.000,270.600" stroke-width="5.241" stroke="black" fill="none" stroke-linecap="round"></path><path d="M 250.000,270.600 C 248.305,273.063 248.795,273.009 246.000,274.600" stroke-width="5.313" stroke="black" fill="none" stroke-linecap="round"></path><path d="M 246.000,274.600 C 243.601,276.127 243.805,276.063 241.000,276.600" stroke-width="5.361" stroke="black" fill="none" stroke-linecap="round"></path><path d="M 241.000,276.600 C 235.264,277.127 238.101,277.127 235.000,276.600" stroke-width="5.389" stroke="black" fill="none" stroke-linecap="round"></path><path d="M 235.000,276.600 C 237.432,274.857 234.764,276.127 240.000,274.600" stroke-width="5.483" stroke="black" fill="none" stroke-linecap="round"></path><path d="M 240.000,274.600 C 243.134,274.200 242.432,274.357 245.000,275.600" stroke-width="5.377" stroke="black" fill="none" stroke-linecap="round"></path><path d="M 245.000,275.600 C 246.933,277.933 247.134,277.200 248.000,280.600" stroke-width="5.352" stroke="black" fill="none" stroke-linecap="round"></path><path d="M 248.000,280.600 C 248.067,283.267 248.933,282.933 249.000,285.600" stroke-width="5.218" stroke="black" fill="none" stroke-linecap="round"></path><path d="M 249.000,285.600 C 250.933,287.933 250.067,288.267 252.000,290.600" stroke-width="5.315" stroke="black" fill="none" stroke-linecap="round"></path><path d="M 252.000,290.600 C 252.770,293.073 252.933,292.933 253.000,295.600" stroke-width="5.428" stroke="black" fill="none" stroke-linecap="round"></path><path d="M 253.000,295.600 C 252.239,298.811 253.270,298.573 253.000,301.600" stroke-width="5.437" stroke="black" fill="none" stroke-linecap="round"></path><path d="M 263.000,268.600 C 262.478,273.164 263.000,273.100 263.000,277.600" stroke-width="5.439" stroke="black" fill="none" stroke-linecap="round"></path><path d="M 263.000,277.600 C 264.421,281.548 263.478,281.664 265.000,285.600" stroke-width="4.746" stroke="black" fill="none" stroke-linecap="round"></path><path d="M 265.000,285.600 C 265.000,288.600 265.421,288.548 265.000,291.600" stroke-width="5.123" stroke="black" fill="none" stroke-linecap="round"></path><path d="M 265.000,291.600 C 265.270,294.627 265.000,294.600 265.000,297.600" stroke-width="5.364" stroke="black" fill="none" stroke-linecap="round"></path><circle r="1.5" cx="262" cy="253.60000610351562" fill="black"></circle><circle r="1.5" cx="263" cy="254.60000610351562" fill="black"></circle><circle r="1.5" cx="263" cy="254.60000610351562" fill="black"></circle><circle r="1.5" cx="263" cy="254.60000610351562" fill="black"></circle><circle r="1.5" cx="261" cy="255.60000610351562" fill="black"></circle><circle r="1.5" cx="262" cy="257.6000061035156" fill="black"></circle><circle r="1.5" cx="261" cy="257.6000061035156" fill="black"></circle><circle r="1.5" cx="262" cy="254.60000610351562" fill="black"></circle><circle r="1.5" cx="263" cy="258.6000061035156" fill="black"></circle><path d="M 281.000,267.600 C 278.000,268.600 278.500,269.100 276.000,270.600" stroke-width="5.548" stroke="black" fill="none" stroke-linecap="round"></path><path d="M 276.000,270.600 C 273.533,272.933 274.000,272.600 273.000,275.600" stroke-width="5.440" stroke="black" fill="none" stroke-linecap="round"></path><path d="M 273.000,275.600 C 272.815,278.467 272.533,277.933 274.000,280.600" stroke-width="5.432" stroke="black" fill="none" stroke-linecap="round"></path><path d="M 274.000,280.600 C 275.633,283.285 275.315,282.967 278.000,284.600" stroke-width="5.367" stroke="black" fill="none" stroke-linecap="round"></path><path d="M 278.000,284.600 C 280.500,285.100 280.133,285.785 283.000,285.600" stroke-width="5.426" stroke="black" fill="none" stroke-linecap="round"></path><path d="M 283.000,285.600 C 287.000,287.600 285.500,286.100 288.000,286.600" stroke-width="5.481" stroke="black" fill="none" stroke-linecap="round"></path><path d="M 288.000,286.600 C 287.230,284.127 289.000,285.600 287.000,281.600" stroke-width="5.538" stroke="black" fill="none" stroke-linecap="round"></path><path d="M 287.000,281.600 C 287.761,278.389 286.730,278.627 287.000,275.600" stroke-width="5.462" stroke="black" fill="none" stroke-linecap="round"></path><path d="M 287.000,275.600 C 283.746,270.854 286.261,272.889 284.000,270.600" stroke-width="5.508" stroke="black" fill="none" stroke-linecap="round"></path><path d="M 284.000,270.600 C 286.124,272.489 284.246,270.354 288.000,274.600" stroke-width="5.563" stroke="black" fill="none" stroke-linecap="round"></path><path d="M 288.000,274.600 C 290.000,277.100 290.124,276.989 292.000,279.600" stroke-width="5.400" stroke="black" fill="none" stroke-linecap="round"></path><path d="M 292.000,279.600 C 293.876,282.211 294.000,282.100 296.000,284.600" stroke-width="5.361" stroke="black" fill="none" stroke-linecap="round"></path><path d="M 296.000,284.600 C 298.000,286.600 297.876,286.711 300.000,288.600" stroke-width="5.437" stroke="black" fill="none" stroke-linecap="round"></path><path d="M 294.000,261.600 C 295.864,264.475 295.500,264.600 297.000,267.600" stroke-width="5.532" stroke="black" fill="none" stroke-linecap="round"></path><path d="M 297.000,267.600 C 297.270,270.168 297.864,269.975 298.000,272.600" stroke-width="5.422" stroke="black" fill="none" stroke-linecap="round"></path><path d="M 298.000,272.600 C 299.527,277.837 298.770,275.168 300.000,277.600" stroke-width="5.517" stroke="black" fill="none" stroke-linecap="round"></path><path d="M 300.000,277.600 C 300.000,274.600 300.527,277.337 300.000,271.600" stroke-width="5.534" stroke="black" fill="none" stroke-linecap="round"></path><path d="M 300.000,271.600 C 299.473,268.499 300.000,268.600 300.000,265.600" stroke-width="5.335" stroke="black" fill="none" stroke-linecap="round"></path><path d="M 300.000,265.600 C 300.537,262.795 300.473,262.999 302.000,260.600" stroke-width="5.381" stroke="black" fill="none" stroke-linecap="round"></path><path d="M 302.000,260.600 C 304.124,256.365 303.537,258.295 306.000,256.600" stroke-width="5.376" stroke="black" fill="none" stroke-linecap="round"></path><path d="M 306.000,256.600 C 308.608,258.817 308.124,256.865 310.000,261.600" stroke-width="5.446" stroke="black" fill="none" stroke-linecap="round"></path><path d="M 310.000,261.600 C 310.770,264.073 311.108,263.817 311.000,266.600" stroke-width="5.378" stroke="black" fill="none" stroke-linecap="round"></path><path d="M 311.000,266.600 C 310.473,269.701 311.270,269.573 311.000,272.600" stroke-width="5.360" stroke="black" fill="none" stroke-linecap="round"></path><path d="M 311.000,272.600 C 311.320,275.679 311.473,275.201 313.000,277.600" stroke-width="5.449" stroke="black" fill="none" stroke-linecap="round"></path><path d="M 313.000,277.600 C 315.398,279.299 314.820,279.679 318.000,280.600" stroke-width="5.312" stroke="black" fill="none" stroke-linecap="round"></path><path d="M 318.000,280.600 C 321.406,282.402 321.398,282.299 325.000,283.600" stroke-width="4.984" stroke="black" fill="none" stroke-linecap="round"></path><path d="M 325.000,283.600 C 327.667,285.067 327.406,284.402 330.000,284.600" stroke-width="5.332" stroke="black" fill="none" stroke-linecap="round"></path></svg>